<svg xmlns="http://www.w3.org/2000/svg" version="1.1" xmlns:xlink="http://www.w3.org/1999/xlink" width="512" height="512" x="0" y="0" viewBox="0 0 32 32" style="enable-background:new 0 0 512 512" xml:space="preserve" fill-rule="evenodd" class=""><g><path fill-rule="nonzero" d="M24.073 11c.503.059.901.484.921.996v13.997c-.01 1.554-1.344 2.965-2.96 2.996-4.012.025-8.025 0-12.037 0-1.568-.01-2.985-1.349-2.995-2.996V11.996c.018-.478.375-.913.843-.987.517-.082 1.06.306 1.143.831.011.069.01.087.013.156 0 4.669-.03 9.338 0 14.007.01.516.45.976.986.987 4.007.025 8.014.025 12.021 0a1.03 1.03 0 0 0 .987-1.003V11.996c.019-.481.373-.913.843-.987.149-.024.186-.011.235-.009zm-6.04 1.997a.862.862 0 0 1 .327.075c.327.136.57.456.61.811.006.05.005.062.007.112v7.997a.87.87 0 0 1-.099.434c-.295.611-1.283.754-1.716.144a1.055 1.055 0 0 1-.185-.578v-7.997a.87.87 0 0 1 .057-.33c.123-.352.456-.621.831-.663.108-.012.133-.006.168-.005zm-3.958 0a.856.856 0 0 1 .326.075c.327.135.571.456.611.811.005.05.005.062.006.112v7.997a.86.86 0 0 1-.099.434c-.295.611-1.283.754-1.716.144a1.054 1.054 0 0 1-.184-.578v-7.997a.854.854 0 0 1 .056-.33c.123-.352.456-.621.832-.663.108-.012.133-.006.168-.005zM11 6.998V4a.86.86 0 0 1 .056-.331 1.02 1.02 0 0 1 .832-.663c.049-.005.062-.005.111-.006h7.997l.056.002a.86.86 0 0 1 .327.074c.328.136.57.456.61.812.006.049.005.062.007.112v2.998h4.997l.088.004c.076.01.096.01.171.03.743.199.982 1.404.241 1.832-.138.079-.215.121-.5.133H6.002c-.077-.003-.097-.001-.174-.015-.783-.138-1.101-1.402-.326-1.85.139-.08.216-.121.5-.134zm7.996 0V4.999h-5.997v1.999z" fill="#c62828" opacity="1" data-original="#000000" class=""></path></g></svg>